<?xml version="1.0" ?><svg enable-background="new 0 0 200 200" id="Layer_1" version="1.1" viewBox="0 0 200 200" xml:space="preserve" xmlns="http://www.w3.org/2000/svg" xmlns:xlink="http://www.w3.org/1999/xlink"><g><linearGradient gradientUnits="userSpaceOnUse" id="SVGID_1_" x1="40.2864" x2="150.3206" y1="134.6119" y2="24.5777"><stop offset="1.274966e-07" style="stop-color:#12C2E9"/><stop offset="0.4754" style="stop-color:#C471ED"/><stop offset="1" style="stop-color:#F64F59"/></linearGradient><path d="M170.353,60.428c-6.873-19.952-24.582-33.145-44.286-35.288c2.292-1.594,4.196-3.102,5.084-3.99   c3.769-3.768,3.769-9.9,0.001-13.668c-1.826-1.826-4.253-2.831-6.835-2.831s-5.009,1.005-6.835,2.831   c-0.048,0.048-1.447,1.643-3.206,3.995C112.3,7.344,107.527,5.25,100,5.25c-7.156,0-11.818,1.895-13.959,5.632   c-1.543-2.024-2.714-3.357-2.758-3.402c-1.826-1.825-4.253-2.831-6.834-2.831c-2.582,0-5.009,1.005-6.834,2.831   c-1.826,1.826-2.831,4.253-2.831,6.834c0,2.582,1.005,5.009,2.83,6.834c0.877,0.878,2.744,2.357,4.994,3.927   c-19.974,1.912-38.01,15.173-44.96,35.351c-9.477,27.517,5.198,57.613,32.715,67.091c0.195,0.067,0.392,0.115,0.589,0.146   c0.584,0.148,1.172,0.245,1.767,0.245c9.583-0.001,20.495-18.546,27.572-36.102c5.105-1.721,8.633-6.501,8.633-12.061   c0-2.535-0.756-4.974-2.143-7.053c0.437-1.569,0.847-3.124,1.226-4.658c1.209,4.883,2.704,9.959,4.469,15.084   c0.594,1.721,1.201,3.398,1.812,5.017c-2.544,2.786-3.984,6.392-3.984,10.25c0,8.414,6.85,15.26,15.27,15.26   c0.344,0,0.688-0.039,1.031-0.062c6.058,9.539,11.615,14.346,16.571,14.346c0.64,0,1.267-0.106,1.887-0.267   c0.193-0.032,0.385-0.079,0.576-0.145C165.154,118.041,179.829,87.944,170.353,60.428z M122.433,12.431   c0.503-0.503,1.172-0.78,1.884-0.78s1.381,0.277,1.884,0.78c1.04,1.04,1.04,2.73,0,3.77c-1.698,1.699-7.477,5.655-11.287,7.519   C116.777,19.909,120.733,14.13,122.433,12.431z M100,12.25c8.325,0,8.325,2.398,8.325,4.325c0,4.011-2.674,9.337-5.774,11.424   c-0.345,0.16-0.675,0.346-0.99,0.556c-0.519,0.221-1.042,0.346-1.561,0.346c-0.513,0-1.031-0.121-1.544-0.337   c-0.323-0.216-0.66-0.407-1.014-0.57c-3.096-2.089-5.767-7.411-5.767-11.419C91.675,14.649,91.675,12.25,100,12.25z M73.783,14.315   c0-0.711,0.276-1.381,0.781-1.885c0.503-0.503,1.172-0.78,1.884-0.78s1.381,0.277,1.884,0.78c1.699,1.7,5.655,7.478,7.52,11.289   c-3.811-1.864-9.589-5.82-11.288-7.52C74.06,15.696,73.783,15.027,73.783,14.315z M36.267,62.707   c7.152-20.766,27.837-33.097,48.81-30.544c-1.942,1.919-3.951,4.402-6.022,7.449c-0.557,0.819-1.113,1.681-1.667,2.564   c-7.538-2.147-15.493-1.453-22.591,2.01c-7.628,3.721-13.352,10.19-16.115,18.215c-0.629,1.828,0.342,3.819,2.17,4.449   c0.378,0.13,0.762,0.192,1.14,0.192c1.452,0,2.81-0.911,3.31-2.361c2.154-6.258,6.617-11.302,12.565-14.204   c4.99-2.433,10.523-3.108,15.871-1.992c-3.686,6.885-7.177,14.982-10.153,23.63c-6.149,17.837-8.904,34.569-7.625,44.731   C37.835,105.953,29.11,83.485,36.267,62.707z M89.073,85.422c-0.279,0.05-0.574,0.075-0.9,0.075c-3.171,0-5.75-2.58-5.75-5.75   s2.579-5.75,5.75-5.75c0.402,0,0.797,0.041,1.18,0.12c0.307,0.063,0.603,0.158,0.893,0.27c0.253,0.098,0.502,0.208,0.739,0.341   c0.508,0.287,0.976,0.654,1.389,1.096c0.999,1.07,1.549,2.463,1.549,3.922C93.923,82.574,91.905,84.957,89.073,85.422z    M92.826,67.882c-0.148-0.058-0.302-0.101-0.452-0.154c-0.166-0.058-0.33-0.118-0.498-0.17c-0.239-0.073-0.482-0.132-0.725-0.191   c-0.161-0.039-0.321-0.083-0.484-0.116c-0.272-0.055-0.547-0.092-0.823-0.129c-0.138-0.018-0.275-0.045-0.414-0.059   c-0.417-0.042-0.836-0.066-1.257-0.066c-7.03,0-12.75,5.72-12.75,12.75c0,0.406,0.024,0.807,0.061,1.203   c0.012,0.127,0.032,0.25,0.047,0.376c0.034,0.27,0.073,0.538,0.123,0.803c0.027,0.141,0.057,0.281,0.089,0.421   c0.056,0.249,0.12,0.494,0.19,0.737c0.039,0.135,0.077,0.269,0.12,0.402c0.085,0.261,0.181,0.517,0.283,0.771   c0.041,0.103,0.078,0.208,0.121,0.31c0.15,0.35,0.314,0.692,0.494,1.025c0.032,0.059,0.07,0.115,0.103,0.174   c0.153,0.272,0.314,0.539,0.486,0.799c0.072,0.109,0.15,0.214,0.225,0.32c0.145,0.205,0.293,0.406,0.45,0.601   c0.088,0.11,0.178,0.218,0.27,0.325c0.161,0.188,0.327,0.37,0.498,0.548c0.093,0.097,0.184,0.195,0.281,0.289   c0.204,0.199,0.416,0.39,0.633,0.575c0.07,0.06,0.136,0.124,0.208,0.183c0.29,0.238,0.591,0.463,0.902,0.675   c0.08,0.054,0.164,0.102,0.245,0.155c0.237,0.154,0.478,0.303,0.726,0.441c0.117,0.066,0.238,0.126,0.358,0.188   c0.222,0.115,0.448,0.225,0.677,0.327c0.129,0.057,0.258,0.113,0.389,0.166c0.239,0.097,0.481,0.184,0.727,0.267   c0.123,0.041,0.244,0.085,0.368,0.123c0.048,0.015,0.095,0.034,0.143,0.048c-9.133,21.588-18.017,29.589-20.001,28.897   c-0.113-0.039-0.418-0.296-0.758-0.993c-2.662-5.453-1.352-23.255,6.32-45.507c4.187-12.162,9.386-23.117,14.642-30.848   c5.253-7.729,8.556-9.208,9.447-9.238c0.151,0.088,0.305,0.17,0.459,0.251c0.619,0.7,1.754,3.093,1.754,9.156v0.01   C96.503,50.208,95.209,58.658,92.826,67.882z M109.303,98.387c0-2.582,1.176-4.968,3.239-6.558c1.439-1.12,3.179-1.712,5.03-1.712   c4.555,0,8.26,3.71,8.26,8.27c0,0.238-0.01,0.475-0.03,0.709c-0.278,3.274-2.463,6.064-5.573,7.114   c-0.221,0.074-0.446,0.14-0.676,0.197c-0.652,0.16-1.319,0.24-1.98,0.24C113.013,106.646,109.303,102.941,109.303,98.387z    M125.544,111.408c0.078-0.048,0.152-0.101,0.229-0.15c0.102-0.065,0.202-0.131,0.302-0.198c0.235-0.157,0.464-0.321,0.689-0.491   c0.083-0.063,0.169-0.124,0.251-0.188c0.299-0.235,0.591-0.479,0.871-0.735c0.025-0.022,0.047-0.047,0.071-0.069   c0.253-0.235,0.497-0.479,0.733-0.73c0.078-0.083,0.154-0.169,0.23-0.253c0.183-0.204,0.36-0.412,0.532-0.625   c0.073-0.091,0.147-0.181,0.218-0.273c0.198-0.258,0.389-0.522,0.571-0.793c0.029-0.043,0.061-0.085,0.09-0.128   c0.207-0.315,0.4-0.639,0.584-0.97c0.05-0.09,0.095-0.182,0.144-0.273c0.131-0.248,0.256-0.498,0.373-0.753   c0.051-0.112,0.101-0.223,0.15-0.336c0.114-0.264,0.219-0.531,0.318-0.802c0.033-0.091,0.07-0.181,0.102-0.273   c0.124-0.36,0.235-0.725,0.332-1.095c0.02-0.075,0.034-0.152,0.053-0.227c0.073-0.3,0.139-0.602,0.194-0.908   c0.022-0.124,0.042-0.248,0.061-0.372c0.043-0.276,0.078-0.553,0.106-0.833c0.012-0.119,0.026-0.237,0.035-0.357   c0.03-0.393,0.05-0.788,0.05-1.187c0-8.42-6.846-15.27-15.26-15.27c-0.447,0-0.889,0.021-1.329,0.058   c-0.142,0.012-0.282,0.036-0.424,0.052c-0.295,0.033-0.591,0.067-0.882,0.117c-0.164,0.028-0.325,0.067-0.488,0.101   c-0.265,0.055-0.529,0.11-0.79,0.178c-0.168,0.044-0.332,0.097-0.498,0.147c-0.251,0.076-0.502,0.153-0.749,0.241   c-0.057,0.021-0.117,0.035-0.174,0.056c-0.387-1.056-0.771-2.135-1.148-3.23c-4.823-14.007-7.589-27.533-7.589-37.121   c0-6.079,1.14-8.469,1.759-9.161c0.151-0.08,0.301-0.16,0.449-0.246c0.876,0.023,4.185,1.504,9.443,9.239   c5.255,7.731,10.458,18.687,14.648,30.848c4.187,12.156,6.833,23.988,7.452,33.316c0.669,10.067-1.351,12.996-1.889,13.184   C134.739,121.104,131.247,119.899,125.544,111.408z M144.083,116.821c0.348-2.707,0.401-5.898,0.157-9.573   c-0.66-9.929-3.437-22.406-7.819-35.132c-4.387-12.731-9.884-24.275-15.478-32.503c-2.071-3.047-4.08-5.53-6.021-7.449   c20.974-2.552,41.658,9.777,48.811,30.543C170.884,83.468,162.178,105.917,144.083,116.821z" fill="url(#SVGID_1_)"/><linearGradient gradientUnits="userSpaceOnUse" id="SVGID_2_" x1="80.8174" x2="190.8516" y1="175.1429" y2="65.1087"><stop offset="1.274966e-07" style="stop-color:#12C2E9"/><stop offset="0.4754" style="stop-color:#C471ED"/><stop offset="1" style="stop-color:#F64F59"/></linearGradient><path d="M136.057,167.195c-0.135-0.325-0.326-0.612-0.543-0.876c-0.052-0.413-0.158-0.822-0.322-1.217   l-5.349-12.932c-0.001-0.001-0.001-0.002-0.002-0.003c-0.626-1.511-1.963-2.58-3.574-2.86l-8.577-1.488l5.415-7.675   c0.692-0.98,0.833-2.247,0.375-3.355l-0.228-0.55c-0.135-0.325-0.326-0.613-0.544-0.877c-0.052-0.413-0.158-0.822-0.322-1.216   l-5.35-12.932c-0.626-1.513-1.962-2.583-3.576-2.864l-26.15-4.536c-1.702-0.295-3.436,0.36-4.518,1.711   c-1.081,1.351-1.342,3.184-0.681,4.782l5.351,12.937c0.627,1.51,1.964,2.579,3.574,2.858l7.862,1.364l-4.6,6.515   c-0.944,1.336-1.136,3.037-0.509,4.558c0.196,0.473,0.468,0.896,0.79,1.272c0.037,0.492,0.142,0.983,0.337,1.454l5.349,12.928   c0.624,1.514,1.961,2.586,3.576,2.867l7.851,1.362l-4.597,6.514c-0.94,1.337-1.13,3.036-0.506,4.549l5.35,12.932   c0.662,1.599,2.142,2.712,3.86,2.904c0.177,0.02,0.353,0.03,0.528,0.03c1.53,0,2.982-0.742,3.878-2.01l15.701-22.244   c0.692-0.981,0.834-2.248,0.374-3.357L136.057,167.195z M106.532,138.793l7.984,1.383l-4.458,6.318l-7.987-1.384L106.532,138.793z    M90.144,121.41l20.898,3.625l3.313,8.009l-0.556-0.096l-20.345-3.53L90.144,121.41z M102.948,152.366l1.01,0.175l19.89,3.451   L127.16,164l-20.898-3.625L102.948,152.366z M116.845,185.962l-3.313-8.007l5.793-8.209l7.674,1.33l0.314,0.055L116.845,185.962z" fill="url(#SVGID_2_)"/><linearGradient gradientUnits="userSpaceOnUse" id="SVGID_3_" x1="66.9711" x2="177.0053" y1="161.2967" y2="51.2625"><stop offset="1.274966e-07" style="stop-color:#12C2E9"/><stop offset="0.4754" style="stop-color:#C471ED"/><stop offset="1" style="stop-color:#F64F59"/></linearGradient><path d="M85.753,150.606l-10.839-1.575l-4.848-9.822c-0.59-1.195-1.807-1.951-3.139-1.951   s-2.549,0.756-3.139,1.951l-4.848,9.822l-10.839,1.575c-1.318,0.192-2.414,1.115-2.826,2.382c-0.411,1.267-0.068,2.658,0.886,3.588   l7.844,7.646l-1.851,10.796c-0.226,1.313,0.314,2.64,1.392,3.423c1.079,0.783,2.509,0.886,3.687,0.266l9.694-5.097l9.694,5.097   c0.513,0.27,1.071,0.402,1.629,0.402c0.726,0,1.447-0.226,2.058-0.668c1.077-0.783,1.617-2.11,1.392-3.423l-1.851-10.796   l7.844-7.646c0.954-0.93,1.297-2.321,0.886-3.588C88.167,151.721,87.071,150.798,85.753,150.606z M73.646,160.493   c-0.824,0.804-1.201,1.962-1.006,3.098l0.963,5.62l-5.046-2.653c-0.51-0.268-1.069-0.402-1.629-0.402s-1.119,0.134-1.629,0.402   l-5.046,2.653l0.963-5.62c0.195-1.135-0.182-2.293-1.006-3.098l-4.083-3.979l5.642-0.819c1.141-0.166,2.126-0.882,2.636-1.915   l2.523-5.113l2.523,5.113c0.51,1.033,1.495,1.749,2.636,1.915l5.642,0.819L73.646,160.493z" fill="url(#SVGID_3_)"/></g></svg>